<svg xmlns="http://www.w3.org/2000/svg" xmlns:xlink="http://www.w3.org/1999/xlink" width="500" zoomAndPan="magnify" viewBox="0 0 375 374.999991" height="500" preserveAspectRatio="xMidYMid meet" version="1.0"><defs><g/></defs><rect x="-37.5" width="450" fill="#ffffff" y="-37.499999" height="449.999989" fill-opacity="1"/><rect x="-37.5" width="450" fill="#ffffff" y="-37.499999" height="449.999989" fill-opacity="1"/><rect x="-37.5" width="450" fill="#ffffff" y="-37.499999" height="449.999989" fill-opacity="1"/><g fill="#000000" fill-opacity="1"><g transform="translate(103.879107, 204.838251)"><g><path d="M 89.199219 -1.703125 L 46.019531 -112.777344 C 45.59375 -113.910156 43.605469 -113.910156 43.179688 -112.777344 L 0.140625 -1.703125 C -0.285156 -0.851562 0.285156 0 1.5625 0 L 21.019531 0 C 21.589844 0 22.300781 -0.285156 22.441406 -0.851562 L 44.597656 -64.199219 L 67.039062 -0.851562 C 67.183594 -0.285156 67.894531 0 68.320312 0 L 87.917969 0 C 88.914062 0 89.625 -0.851562 89.199219 -1.703125 Z M 89.199219 -1.703125 "/></g></g></g><g fill="#000000" fill-opacity="1"><g transform="translate(188.268509, 254.82139)"><g><path d="M 59.230469 -92.464844 L 44.316406 -50.847656 L 22.15625 -112.777344 C 22.015625 -113.34375 21.449219 -113.628906 20.738281 -113.628906 L 1.421875 -113.628906 C 0.285156 -113.628906 -0.285156 -112.777344 0.140625 -111.921875 L 42.894531 -0.710938 C 43.460938 0.285156 45.167969 0.285156 45.59375 -0.710938 L 81.101562 -92.464844 Z M 59.230469 -92.464844 "/></g></g></g><g fill="#000000" fill-opacity="1"><g transform="translate(106.211284, 235.450209)"><g><path d="M 2.5625 0 L -0.046875 0 L 3.65625 -10.03125 L 6.234375 -10.03125 L 9.859375 0 L 7.265625 0 L 6.734375 -1.6875 L 3.09375 -1.6875 Z M 4.890625 -7.5625 C 4.804688 -7.269531 4.710938 -6.953125 4.609375 -6.609375 C 4.515625 -6.273438 4.347656 -5.726562 4.109375 -4.96875 L 3.703125 -3.640625 L 6.109375 -3.640625 L 5.703125 -4.96875 C 5.554688 -5.375 5.414062 -5.800781 5.28125 -6.25 C 5.144531 -6.707031 5.015625 -7.144531 4.890625 -7.5625 Z M 4.890625 -7.5625 "/></g></g></g><g fill="#000000" fill-opacity="1"><g transform="translate(124.768908, 235.450209)"><g><path d="M 8.59375 -2.9375 C 8.59375 -1.925781 8.296875 -1.179688 7.703125 -0.703125 C 7.109375 -0.234375 6.175781 0 4.90625 0 L 0.765625 0 L 0.765625 -10.03125 L 4.90625 -10.03125 C 6.0625 -10.03125 6.878906 -9.828125 7.359375 -9.421875 C 7.847656 -9.023438 8.09375 -8.359375 8.09375 -7.421875 C 8.09375 -6.828125 8.007812 -6.367188 7.84375 -6.046875 C 7.6875 -5.734375 7.367188 -5.492188 6.890625 -5.328125 C 7.472656 -5.210938 7.898438 -4.957031 8.171875 -4.5625 C 8.453125 -4.164062 8.59375 -3.625 8.59375 -2.9375 Z M 5.8125 -7.0625 C 5.8125 -7.40625 5.742188 -7.644531 5.609375 -7.78125 C 5.472656 -7.925781 5.238281 -8 4.90625 -8 L 3.25 -8 L 3.25 -5.96875 L 4.90625 -5.96875 C 5.238281 -5.96875 5.472656 -6.050781 5.609375 -6.21875 C 5.742188 -6.382812 5.8125 -6.664062 5.8125 -7.0625 Z M 6.1875 -3.109375 C 6.1875 -3.492188 6.085938 -3.757812 5.890625 -3.90625 C 5.703125 -4.0625 5.375 -4.140625 4.90625 -4.140625 L 3.25 -4.140625 L 3.25 -2.109375 L 4.90625 -2.109375 C 5.375 -2.109375 5.703125 -2.179688 5.890625 -2.328125 C 6.085938 -2.484375 6.1875 -2.742188 6.1875 -3.109375 Z M 6.1875 -3.109375 "/></g></g></g><g fill="#000000" fill-opacity="1"><g transform="translate(142.398747, 235.450209)"><g><path d="M 9.875 -5.03125 C 9.875 -3.195312 9.5 -1.875 8.75 -1.0625 C 8.007812 -0.25 6.8125 0.15625 5.15625 0.15625 C 3.414062 0.15625 2.191406 -0.222656 1.484375 -0.984375 C 0.785156 -1.753906 0.4375 -3.101562 0.4375 -5.03125 C 0.4375 -6.851562 0.804688 -8.164062 1.546875 -8.96875 C 2.285156 -9.78125 3.488281 -10.1875 5.15625 -10.1875 C 6.894531 -10.1875 8.113281 -9.800781 8.8125 -9.03125 C 9.519531 -8.269531 9.875 -6.9375 9.875 -5.03125 Z M 3.25 -2.875 C 3.382812 -2.613281 3.585938 -2.425781 3.859375 -2.3125 C 4.128906 -2.207031 4.5625 -2.15625 5.15625 -2.15625 C 5.738281 -2.15625 6.164062 -2.207031 6.4375 -2.3125 C 6.707031 -2.425781 6.914062 -2.613281 7.0625 -2.875 C 7.164062 -3.09375 7.238281 -3.367188 7.28125 -3.703125 C 7.332031 -4.046875 7.359375 -4.488281 7.359375 -5.03125 C 7.359375 -5.570312 7.332031 -6.015625 7.28125 -6.359375 C 7.238281 -6.703125 7.164062 -6.984375 7.0625 -7.203125 C 6.925781 -7.472656 6.722656 -7.664062 6.453125 -7.78125 C 6.179688 -7.894531 5.75 -7.953125 5.15625 -7.953125 C 4.550781 -7.953125 4.113281 -7.894531 3.84375 -7.78125 C 3.570312 -7.664062 3.375 -7.472656 3.25 -7.203125 C 3.144531 -6.984375 3.066406 -6.703125 3.015625 -6.359375 C 2.960938 -6.015625 2.9375 -5.570312 2.9375 -5.03125 C 2.9375 -4.488281 2.960938 -4.046875 3.015625 -3.703125 C 3.066406 -3.367188 3.144531 -3.09375 3.25 -2.875 Z M 3.25 -2.875 "/></g></g></g><g fill="#000000" fill-opacity="1"><g transform="translate(161.420257, 235.450209)"><g><path d="M 3.4375 0 L -0.03125 -10.03125 L 2.734375 -10.03125 L 4.21875 -5.078125 C 4.320312 -4.742188 4.441406 -4.300781 4.578125 -3.75 C 4.710938 -3.195312 4.84375 -2.648438 4.96875 -2.109375 C 5.207031 -3.078125 5.375 -3.757812 5.46875 -4.15625 C 5.570312 -4.550781 5.65625 -4.851562 5.71875 -5.0625 L 7.1875 -10.03125 L 9.875 -10.03125 L 6.421875 0 Z M 3.4375 0 "/></g></g></g><g fill="#000000" fill-opacity="1"><g transform="translate(179.977881, 235.450209)"><g><path d="M 7.6875 -2.3125 L 7.6875 0 L 0.765625 0 L 0.765625 -10.03125 L 7.53125 -10.03125 L 7.53125 -7.796875 L 3.25 -7.796875 L 3.25 -6.125 L 6.9375 -6.125 L 6.9375 -4.046875 L 3.25 -4.046875 L 3.25 -2.3125 Z M 7.6875 -2.3125 "/></g></g></g><g fill="#000000" fill-opacity="1"><g transform="translate(218.11083, 157.506976)"><g><path d="M 8.59375 -2.9375 C 8.59375 -1.925781 8.296875 -1.179688 7.703125 -0.703125 C 7.109375 -0.234375 6.175781 0 4.90625 0 L 0.765625 0 L 0.765625 -10.03125 L 4.90625 -10.03125 C 6.0625 -10.03125 6.878906 -9.828125 7.359375 -9.421875 C 7.847656 -9.023438 8.09375 -8.359375 8.09375 -7.421875 C 8.09375 -6.828125 8.007812 -6.367188 7.84375 -6.046875 C 7.6875 -5.734375 7.367188 -5.492188 6.890625 -5.328125 C 7.472656 -5.210938 7.898438 -4.957031 8.171875 -4.5625 C 8.453125 -4.164062 8.59375 -3.625 8.59375 -2.9375 Z M 5.8125 -7.0625 C 5.8125 -7.40625 5.742188 -7.644531 5.609375 -7.78125 C 5.472656 -7.925781 5.238281 -8 4.90625 -8 L 3.25 -8 L 3.25 -5.96875 L 4.90625 -5.96875 C 5.238281 -5.96875 5.472656 -6.050781 5.609375 -6.21875 C 5.742188 -6.382812 5.8125 -6.664062 5.8125 -7.0625 Z M 6.1875 -3.109375 C 6.1875 -3.492188 6.085938 -3.757812 5.890625 -3.90625 C 5.703125 -4.0625 5.375 -4.140625 4.90625 -4.140625 L 3.25 -4.140625 L 3.25 -2.109375 L 4.90625 -2.109375 C 5.375 -2.109375 5.703125 -2.179688 5.890625 -2.328125 C 6.085938 -2.484375 6.1875 -2.742188 6.1875 -3.109375 Z M 6.1875 -3.109375 "/></g></g></g><g fill="#000000" fill-opacity="1"><g transform="translate(227.836683, 157.506976)"><g><path d="M 7.6875 -2.3125 L 7.6875 0 L 0.765625 0 L 0.765625 -10.03125 L 7.53125 -10.03125 L 7.53125 -7.796875 L 3.25 -7.796875 L 3.25 -6.125 L 6.9375 -6.125 L 6.9375 -4.046875 L 3.25 -4.046875 L 3.25 -2.3125 Z M 7.6875 -2.3125 "/></g></g></g><g fill="#000000" fill-opacity="1"><g transform="translate(236.730745, 157.506976)"><g><path d="M 6.984375 -10.03125 L 9.546875 -10.03125 L 6.046875 -3.640625 L 6.046875 0 L 3.5625 0 L 3.5625 -3.640625 L -0.03125 -10.03125 L 2.796875 -10.03125 L 4.8125 -5.84375 Z M 6.984375 -10.03125 "/></g></g></g><g fill="#000000" fill-opacity="1"><g transform="translate(247.096449, 157.506976)"><g><path d="M 9.875 -5.03125 C 9.875 -3.195312 9.5 -1.875 8.75 -1.0625 C 8.007812 -0.25 6.8125 0.15625 5.15625 0.15625 C 3.414062 0.15625 2.191406 -0.222656 1.484375 -0.984375 C 0.785156 -1.753906 0.4375 -3.101562 0.4375 -5.03125 C 0.4375 -6.851562 0.804688 -8.164062 1.546875 -8.96875 C 2.285156 -9.78125 3.488281 -10.1875 5.15625 -10.1875 C 6.894531 -10.1875 8.113281 -9.800781 8.8125 -9.03125 C 9.519531 -8.269531 9.875 -6.9375 9.875 -5.03125 Z M 3.25 -2.875 C 3.382812 -2.613281 3.585938 -2.425781 3.859375 -2.3125 C 4.128906 -2.207031 4.5625 -2.15625 5.15625 -2.15625 C 5.738281 -2.15625 6.164062 -2.207031 6.4375 -2.3125 C 6.707031 -2.425781 6.914062 -2.613281 7.0625 -2.875 C 7.164062 -3.09375 7.238281 -3.367188 7.28125 -3.703125 C 7.332031 -4.046875 7.359375 -4.488281 7.359375 -5.03125 C 7.359375 -5.570312 7.332031 -6.015625 7.28125 -6.359375 C 7.238281 -6.703125 7.164062 -6.984375 7.0625 -7.203125 C 6.925781 -7.472656 6.722656 -7.664062 6.453125 -7.78125 C 6.179688 -7.894531 5.75 -7.953125 5.15625 -7.953125 C 4.550781 -7.953125 4.113281 -7.894531 3.84375 -7.78125 C 3.570312 -7.664062 3.375 -7.472656 3.25 -7.203125 C 3.144531 -6.984375 3.066406 -6.703125 3.015625 -6.359375 C 2.960938 -6.015625 2.9375 -5.570312 2.9375 -5.03125 C 2.9375 -4.488281 2.960938 -4.046875 3.015625 -3.703125 C 3.066406 -3.367188 3.144531 -3.09375 3.25 -2.875 Z M 3.25 -2.875 "/></g></g></g><g fill="#000000" fill-opacity="1"><g transform="translate(258.213972, 157.506976)"><g><path d="M 9.421875 -10.03125 L 9.421875 0 L 7.0625 0 L 3.09375 -5.796875 L 3.09375 0 L 0.765625 0 L 0.765625 -10.03125 L 3.125 -10.03125 L 7.109375 -4.015625 L 7.109375 -10.03125 Z M 9.421875 -10.03125 "/></g></g></g><g fill="#000000" fill-opacity="1"><g transform="translate(269.219528, 157.506976)"><g><path d="M 4.265625 0 L 0.765625 0 L 0.765625 -10.03125 L 4.265625 -10.03125 C 5.296875 -10.03125 6.109375 -9.941406 6.703125 -9.765625 C 7.304688 -9.597656 7.789062 -9.328125 8.15625 -8.953125 C 8.519531 -8.585938 8.785156 -8.085938 8.953125 -7.453125 C 9.117188 -6.816406 9.203125 -6.007812 9.203125 -5.03125 C 9.203125 -3.289062 8.8125 -2.015625 8.03125 -1.203125 C 7.25 -0.398438 5.992188 0 4.265625 0 Z M 6.234375 -7.15625 C 6.085938 -7.375 5.867188 -7.535156 5.578125 -7.640625 C 5.296875 -7.742188 4.859375 -7.796875 4.265625 -7.796875 L 3.25 -7.796875 L 3.25 -2.3125 L 4.265625 -2.3125 C 4.847656 -2.3125 5.28125 -2.359375 5.5625 -2.453125 C 5.851562 -2.554688 6.078125 -2.710938 6.234375 -2.921875 C 6.378906 -3.128906 6.484375 -3.398438 6.546875 -3.734375 C 6.609375 -4.066406 6.640625 -4.5 6.640625 -5.03125 C 6.640625 -5.5625 6.609375 -5.992188 6.546875 -6.328125 C 6.484375 -6.660156 6.378906 -6.9375 6.234375 -7.15625 Z M 6.234375 -7.15625 "/></g></g></g><g fill="#000000" fill-opacity="1"><g transform="translate(70.899053, 303.66244)"><g><path d="M 4.578125 -3.75 L 2.546875 -4.21875 C 1.734375 -4.414062 1.179688 -4.710938 0.890625 -5.109375 C 0.597656 -5.503906 0.453125 -6.066406 0.453125 -6.796875 C 0.453125 -7.960938 0.753906 -8.816406 1.359375 -9.359375 C 1.972656 -9.910156 2.925781 -10.1875 4.21875 -10.1875 C 4.757812 -10.1875 5.234375 -10.164062 5.640625 -10.125 C 6.054688 -10.082031 6.441406 -10.007812 6.796875 -9.90625 L 6.796875 -7.6875 C 5.984375 -7.820312 5.425781 -7.898438 5.125 -7.921875 C 4.820312 -7.941406 4.503906 -7.953125 4.171875 -7.953125 C 3.722656 -7.953125 3.394531 -7.875 3.1875 -7.71875 C 2.988281 -7.570312 2.890625 -7.320312 2.890625 -6.96875 C 2.890625 -6.800781 2.921875 -6.671875 2.984375 -6.578125 C 3.054688 -6.492188 3.179688 -6.429688 3.359375 -6.390625 L 5.28125 -5.9375 C 5.832031 -5.8125 6.226562 -5.6875 6.46875 -5.5625 C 6.71875 -5.4375 6.921875 -5.28125 7.078125 -5.09375 C 7.242188 -4.882812 7.363281 -4.617188 7.4375 -4.296875 C 7.519531 -3.984375 7.5625 -3.597656 7.5625 -3.140625 C 7.5625 -1.972656 7.253906 -1.128906 6.640625 -0.609375 C 6.023438 -0.0976562 5.066406 0.15625 3.765625 0.15625 C 3.097656 0.15625 2.460938 0.113281 1.859375 0.03125 C 1.265625 -0.0390625 0.804688 -0.132812 0.484375 -0.25 L 0.484375 -2.609375 C 0.910156 -2.472656 1.414062 -2.363281 2 -2.28125 C 2.582031 -2.195312 3.171875 -2.15625 3.765625 -2.15625 C 4.234375 -2.15625 4.554688 -2.210938 4.734375 -2.328125 C 4.921875 -2.453125 5.015625 -2.691406 5.015625 -3.046875 C 5.015625 -3.265625 4.984375 -3.425781 4.921875 -3.53125 C 4.859375 -3.632812 4.742188 -3.707031 4.578125 -3.75 Z M 4.578125 -3.75 "/></g></g></g><g fill="#000000" fill-opacity="1"><g transform="translate(87.441154, 303.66244)"><g><path d="M 9.875 -5.03125 C 9.875 -3.195312 9.5 -1.875 8.75 -1.0625 C 8.007812 -0.25 6.8125 0.15625 5.15625 0.15625 C 3.414062 0.15625 2.191406 -0.222656 1.484375 -0.984375 C 0.785156 -1.753906 0.4375 -3.101562 0.4375 -5.03125 C 0.4375 -6.851562 0.804688 -8.164062 1.546875 -8.96875 C 2.285156 -9.78125 3.488281 -10.1875 5.15625 -10.1875 C 6.894531 -10.1875 8.113281 -9.800781 8.8125 -9.03125 C 9.519531 -8.269531 9.875 -6.9375 9.875 -5.03125 Z M 3.25 -2.875 C 3.382812 -2.613281 3.585938 -2.425781 3.859375 -2.3125 C 4.128906 -2.207031 4.5625 -2.15625 5.15625 -2.15625 C 5.738281 -2.15625 6.164062 -2.207031 6.4375 -2.3125 C 6.707031 -2.425781 6.914062 -2.613281 7.0625 -2.875 C 7.164062 -3.09375 7.238281 -3.367188 7.28125 -3.703125 C 7.332031 -4.046875 7.359375 -4.488281 7.359375 -5.03125 C 7.359375 -5.570312 7.332031 -6.015625 7.28125 -6.359375 C 7.238281 -6.703125 7.164062 -6.984375 7.0625 -7.203125 C 6.925781 -7.472656 6.722656 -7.664062 6.453125 -7.78125 C 6.179688 -7.894531 5.75 -7.953125 5.15625 -7.953125 C 4.550781 -7.953125 4.113281 -7.894531 3.84375 -7.78125 C 3.570312 -7.664062 3.375 -7.472656 3.25 -7.203125 C 3.144531 -6.984375 3.066406 -6.703125 3.015625 -6.359375 C 2.960938 -6.015625 2.9375 -5.570312 2.9375 -5.03125 C 2.9375 -4.488281 2.960938 -4.046875 3.015625 -3.703125 C 3.066406 -3.367188 3.144531 -3.09375 3.25 -2.875 Z M 3.25 -2.875 "/></g></g></g><g fill="#000000" fill-opacity="1"><g transform="translate(106.462664, 303.66244)"><g><path d="M 5.125 -2.15625 C 5.550781 -2.15625 6.015625 -2.203125 6.515625 -2.296875 C 7.015625 -2.390625 7.460938 -2.507812 7.859375 -2.65625 L 7.859375 -0.46875 C 7.265625 -0.226562 6.734375 -0.0664062 6.265625 0.015625 C 5.796875 0.109375 5.304688 0.15625 4.796875 0.15625 C 3.867188 0.15625 3.128906 0.0507812 2.578125 -0.15625 C 2.023438 -0.375 1.582031 -0.71875 1.25 -1.1875 C 0.96875 -1.59375 0.757812 -2.109375 0.625 -2.734375 C 0.5 -3.367188 0.4375 -4.132812 0.4375 -5.03125 C 0.4375 -6.820312 0.820312 -8.128906 1.59375 -8.953125 C 2.363281 -9.773438 3.59375 -10.1875 5.28125 -10.1875 C 5.769531 -10.1875 6.207031 -10.175781 6.59375 -10.15625 C 6.976562 -10.132812 7.320312 -10.097656 7.625 -10.046875 L 7.625 -7.890625 C 7.28125 -7.910156 6.914062 -7.925781 6.53125 -7.9375 C 6.15625 -7.945312 5.738281 -7.953125 5.28125 -7.953125 C 4.695312 -7.953125 4.257812 -7.894531 3.96875 -7.78125 C 3.6875 -7.664062 3.476562 -7.472656 3.34375 -7.203125 C 3.21875 -6.984375 3.125 -6.695312 3.0625 -6.34375 C 3.007812 -6 2.984375 -5.5625 2.984375 -5.03125 C 2.984375 -4.519531 3.007812 -4.097656 3.0625 -3.765625 C 3.113281 -3.429688 3.191406 -3.148438 3.296875 -2.921875 C 3.429688 -2.648438 3.628906 -2.453125 3.890625 -2.328125 C 4.160156 -2.210938 4.570312 -2.15625 5.125 -2.15625 Z M 5.125 -2.15625 "/></g></g></g><g fill="#000000" fill-opacity="1"><g transform="translate(123.308698, 303.66244)"><g><path d="M 3.25 -10.03125 L 3.25 0 L 0.765625 0 L 0.765625 -10.03125 Z M 3.25 -10.03125 "/></g></g></g><g fill="#000000" fill-opacity="1"><g transform="translate(136.043717, 303.66244)"><g><path d="M 2.5625 0 L -0.046875 0 L 3.65625 -10.03125 L 6.234375 -10.03125 L 9.859375 0 L 7.265625 0 L 6.734375 -1.6875 L 3.09375 -1.6875 Z M 4.890625 -7.5625 C 4.804688 -7.269531 4.710938 -6.953125 4.609375 -6.609375 C 4.515625 -6.273438 4.347656 -5.726562 4.109375 -4.96875 L 3.703125 -3.640625 L 6.109375 -3.640625 L 5.703125 -4.96875 C 5.554688 -5.375 5.414062 -5.800781 5.28125 -6.25 C 5.144531 -6.707031 5.015625 -7.144531 4.890625 -7.5625 Z M 4.890625 -7.5625 "/></g></g></g><g fill="#000000" fill-opacity="1"><g transform="translate(154.601341, 303.66244)"><g><path d="M 7.171875 -2.3125 L 7.171875 0 L 0.765625 0 L 0.765625 -10.03125 L 3.25 -10.03125 L 3.25 -2.3125 Z M 7.171875 -2.3125 "/></g></g></g><g fill="#000000" fill-opacity="1"><g transform="translate(170.695555, 303.66244)"><g/></g></g><g fill="#000000" fill-opacity="1"><g transform="translate(181.782968, 303.66244)"><g><path d="M 4.578125 -3.75 L 2.546875 -4.21875 C 1.734375 -4.414062 1.179688 -4.710938 0.890625 -5.109375 C 0.597656 -5.503906 0.453125 -6.066406 0.453125 -6.796875 C 0.453125 -7.960938 0.753906 -8.816406 1.359375 -9.359375 C 1.972656 -9.910156 2.925781 -10.1875 4.21875 -10.1875 C 4.757812 -10.1875 5.234375 -10.164062 5.640625 -10.125 C 6.054688 -10.082031 6.441406 -10.007812 6.796875 -9.90625 L 6.796875 -7.6875 C 5.984375 -7.820312 5.425781 -7.898438 5.125 -7.921875 C 4.820312 -7.941406 4.503906 -7.953125 4.171875 -7.953125 C 3.722656 -7.953125 3.394531 -7.875 3.1875 -7.71875 C 2.988281 -7.570312 2.890625 -7.320312 2.890625 -6.96875 C 2.890625 -6.800781 2.921875 -6.671875 2.984375 -6.578125 C 3.054688 -6.492188 3.179688 -6.429688 3.359375 -6.390625 L 5.28125 -5.9375 C 5.832031 -5.8125 6.226562 -5.6875 6.46875 -5.5625 C 6.71875 -5.4375 6.921875 -5.28125 7.078125 -5.09375 C 7.242188 -4.882812 7.363281 -4.617188 7.4375 -4.296875 C 7.519531 -3.984375 7.5625 -3.597656 7.5625 -3.140625 C 7.5625 -1.972656 7.253906 -1.128906 6.640625 -0.609375 C 6.023438 -0.0976562 5.066406 0.15625 3.765625 0.15625 C 3.097656 0.15625 2.460938 0.113281 1.859375 0.03125 C 1.265625 -0.0390625 0.804688 -0.132812 0.484375 -0.25 L 0.484375 -2.609375 C 0.910156 -2.472656 1.414062 -2.363281 2 -2.28125 C 2.582031 -2.195312 3.171875 -2.15625 3.765625 -2.15625 C 4.234375 -2.15625 4.554688 -2.210938 4.734375 -2.328125 C 4.921875 -2.453125 5.015625 -2.691406 5.015625 -3.046875 C 5.015625 -3.265625 4.984375 -3.425781 4.921875 -3.53125 C 4.859375 -3.632812 4.742188 -3.707031 4.578125 -3.75 Z M 4.578125 -3.75 "/></g></g></g><g fill="#000000" fill-opacity="1"><g transform="translate(198.32507, 303.66244)"><g><path d="M 7.6875 -2.3125 L 7.6875 0 L 0.765625 0 L 0.765625 -10.03125 L 7.53125 -10.03125 L 7.53125 -7.796875 L 3.25 -7.796875 L 3.25 -6.125 L 6.9375 -6.125 L 6.9375 -4.046875 L 3.25 -4.046875 L 3.25 -2.3125 Z M 7.6875 -2.3125 "/></g></g></g><g fill="#000000" fill-opacity="1"><g transform="translate(215.123119, 303.66244)"><g><path d="M 3.25 -3.234375 L 3.25 0 L 0.765625 0 L 0.765625 -10.03125 L 4.4375 -10.03125 C 5.976562 -10.03125 7.070312 -9.769531 7.71875 -9.25 C 8.375 -8.726562 8.703125 -7.859375 8.703125 -6.640625 C 8.703125 -5.816406 8.523438 -5.144531 8.171875 -4.625 C 7.828125 -4.113281 7.304688 -3.738281 6.609375 -3.5 L 9.0625 0 L 6.078125 0 L 4 -3.234375 Z M 6.1875 -6.640625 C 6.1875 -7.066406 6.054688 -7.363281 5.796875 -7.53125 C 5.546875 -7.707031 5.09375 -7.796875 4.4375 -7.796875 L 3.25 -7.796875 L 3.25 -5.234375 L 4.4375 -5.234375 C 5.09375 -5.234375 5.546875 -5.335938 5.796875 -5.546875 C 6.054688 -5.753906 6.1875 -6.117188 6.1875 -6.640625 Z M 6.1875 -6.640625 "/></g></g></g><g fill="#000000" fill-opacity="1"><g transform="translate(233.072889, 303.66244)"><g><path d="M 3.4375 0 L -0.03125 -10.03125 L 2.734375 -10.03125 L 4.21875 -5.078125 C 4.320312 -4.742188 4.441406 -4.300781 4.578125 -3.75 C 4.710938 -3.195312 4.84375 -2.648438 4.96875 -2.109375 C 5.207031 -3.078125 5.375 -3.757812 5.46875 -4.15625 C 5.570312 -4.550781 5.65625 -4.851562 5.71875 -5.0625 L 7.1875 -10.03125 L 9.875 -10.03125 L 6.421875 0 Z M 3.4375 0 "/></g></g></g><g fill="#000000" fill-opacity="1"><g transform="translate(251.630513, 303.66244)"><g><path d="M 3.25 -10.03125 L 3.25 0 L 0.765625 0 L 0.765625 -10.03125 Z M 3.25 -10.03125 "/></g></g></g><g fill="#000000" fill-opacity="1"><g transform="translate(264.365532, 303.66244)"><g><path d="M 5.125 -2.15625 C 5.550781 -2.15625 6.015625 -2.203125 6.515625 -2.296875 C 7.015625 -2.390625 7.460938 -2.507812 7.859375 -2.65625 L 7.859375 -0.46875 C 7.265625 -0.226562 6.734375 -0.0664062 6.265625 0.015625 C 5.796875 0.109375 5.304688 0.15625 4.796875 0.15625 C 3.867188 0.15625 3.128906 0.0507812 2.578125 -0.15625 C 2.023438 -0.375 1.582031 -0.71875 1.25 -1.1875 C 0.96875 -1.59375 0.757812 -2.109375 0.625 -2.734375 C 0.5 -3.367188 0.4375 -4.132812 0.4375 -5.03125 C 0.4375 -6.820312 0.820312 -8.128906 1.59375 -8.953125 C 2.363281 -9.773438 3.59375 -10.1875 5.28125 -10.1875 C 5.769531 -10.1875 6.207031 -10.175781 6.59375 -10.15625 C 6.976562 -10.132812 7.320312 -10.097656 7.625 -10.046875 L 7.625 -7.890625 C 7.28125 -7.910156 6.914062 -7.925781 6.53125 -7.9375 C 6.15625 -7.945312 5.738281 -7.953125 5.28125 -7.953125 C 4.695312 -7.953125 4.257812 -7.894531 3.96875 -7.78125 C 3.6875 -7.664062 3.476562 -7.472656 3.34375 -7.203125 C 3.21875 -6.984375 3.125 -6.695312 3.0625 -6.34375 C 3.007812 -6 2.984375 -5.5625 2.984375 -5.03125 C 2.984375 -4.519531 3.007812 -4.097656 3.0625 -3.765625 C 3.113281 -3.429688 3.191406 -3.148438 3.296875 -2.921875 C 3.429688 -2.648438 3.628906 -2.453125 3.890625 -2.328125 C 4.160156 -2.210938 4.570312 -2.15625 5.125 -2.15625 Z M 5.125 -2.15625 "/></g></g></g><g fill="#000000" fill-opacity="1"><g transform="translate(281.211554, 303.66244)"><g><path d="M 7.6875 -2.3125 L 7.6875 0 L 0.765625 0 L 0.765625 -10.03125 L 7.53125 -10.03125 L 7.53125 -7.796875 L 3.25 -7.796875 L 3.25 -6.125 L 6.9375 -6.125 L 6.9375 -4.046875 L 3.25 -4.046875 L 3.25 -2.3125 Z M 7.6875 -2.3125 "/></g></g></g><g fill="#000000" fill-opacity="1"><g transform="translate(298.009603, 303.66244)"><g><path d="M 4.578125 -3.75 L 2.546875 -4.21875 C 1.734375 -4.414062 1.179688 -4.710938 0.890625 -5.109375 C 0.597656 -5.503906 0.453125 -6.066406 0.453125 -6.796875 C 0.453125 -7.960938 0.753906 -8.816406 1.359375 -9.359375 C 1.972656 -9.910156 2.925781 -10.1875 4.21875 -10.1875 C 4.757812 -10.1875 5.234375 -10.164062 5.640625 -10.125 C 6.054688 -10.082031 6.441406 -10.007812 6.796875 -9.90625 L 6.796875 -7.6875 C 5.984375 -7.820312 5.425781 -7.898438 5.125 -7.921875 C 4.820312 -7.941406 4.503906 -7.953125 4.171875 -7.953125 C 3.722656 -7.953125 3.394531 -7.875 3.1875 -7.71875 C 2.988281 -7.570312 2.890625 -7.320312 2.890625 -6.96875 C 2.890625 -6.800781 2.921875 -6.671875 2.984375 -6.578125 C 3.054688 -6.492188 3.179688 -6.429688 3.359375 -6.390625 L 5.28125 -5.9375 C 5.832031 -5.8125 6.226562 -5.6875 6.46875 -5.5625 C 6.71875 -5.4375 6.921875 -5.28125 7.078125 -5.09375 C 7.242188 -4.882812 7.363281 -4.617188 7.4375 -4.296875 C 7.519531 -3.984375 7.5625 -3.597656 7.5625 -3.140625 C 7.5625 -1.972656 7.253906 -1.128906 6.640625 -0.609375 C 6.023438 -0.0976562 5.066406 0.15625 3.765625 0.15625 C 3.097656 0.15625 2.460938 0.113281 1.859375 0.03125 C 1.265625 -0.0390625 0.804688 -0.132812 0.484375 -0.25 L 0.484375 -2.609375 C 0.910156 -2.472656 1.414062 -2.363281 2 -2.28125 C 2.582031 -2.195312 3.171875 -2.15625 3.765625 -2.15625 C 4.234375 -2.15625 4.554688 -2.210938 4.734375 -2.328125 C 4.921875 -2.453125 5.015625 -2.691406 5.015625 -3.046875 C 5.015625 -3.265625 4.984375 -3.425781 4.921875 -3.53125 C 4.859375 -3.632812 4.742188 -3.707031 4.578125 -3.75 Z M 4.578125 -3.75 "/></g></g></g></svg>